<?xml version="1.0" standalone="no"?>
<!DOCTYPE svg PUBLIC "-//W3C//DTD SVG 20010904//EN"
 "http://www.w3.org/TR/2001/REC-SVG-20010904/DTD/svg10.dtd">
<svg version="1.0" xmlns="http://www.w3.org/2000/svg"
 width="512.000000pt" height="512.000000pt" viewBox="0 0 16 16"
 preserveAspectRatio="xMidYMid meet">
<metadata>
Created by potrace 1.11, written by Peter Selinger 2001-2013
</metadata>
<g transform="translate(0.000000,512.000000) scale(0.100000,-0.100000)"
fill="#000000" stroke="none">
<path d="M2527 5104 c-1 -1 -16 -5 -32 -8 -17 -2 -31 -5 -32 -6 -2 -2 -6 -3
-10 -4 -30 -7 -211 -78 -310 -122 -17 -8 -34 -14 -38 -14 -3 0 -32 -13 -65
-29 -32 -16 -69 -32 -82 -36 -12 -5 -65 -28 -116 -51 -50 -24 -94 -44 -96 -44
-3 0 -33 -13 -68 -29 -126 -58 -203 -92 -206 -91 -1 1 -19 -8 -40 -19 -35 -19
-181 -89 -317 -151 -33 -15 -127 -60 -210 -100 -82 -40 -179 -86 -215 -102
-36 -16 -96 -45 -135 -63 -141 -68 -265 -124 -265 -120 0 2 -32 -14 -71 -36
-40 -21 -75 -39 -79 -39 -19 0 -98 -90 -109 -123 -7 -21 -17 -35 -22 -31 -6 3
-8 -491 -7 -1303 l3 -1308 32 -62 c57 -109 72 -119 368 -259 44 -20 82 -38 85
-39 7 -1 74 -33 228 -107 70 -33 161 -76 202 -95 41 -20 120 -57 175 -83 55
-26 141 -67 190 -91 50 -23 92 -43 95 -43 3 -1 34 -15 70 -33 36 -17 108 -50
160 -73 52 -23 115 -52 140 -63 25 -11 47 -21 50 -22 3 0 25 -10 50 -22 54
-25 123 -56 130 -58 3 0 28 -11 55 -24 28 -12 55 -24 60 -25 6 -1 15 -4 20 -8
6 -3 62 -27 125 -52 63 -26 124 -51 135 -57 38 -19 166 -47 198 -44 87 10 159
34 342 115 11 5 46 20 78 34 32 14 60 26 62 26 5 0 408 178 502 221 34 16 67
29 73 29 5 0 10 4 10 10 0 5 3 9 8 8 4 -1 17 3 30 10 12 7 22 10 22 6 0 -4 9
1 21 12 12 10 23 18 25 17 3 -2 67 27 297 136 60 28 113 51 118 51 5 0 9 4 9
9 0 5 11 12 24 15 13 3 93 39 177 79 168 81 252 120 344 162 279 127 312 150
367 262 l33 68 0 1290 0 1290 -27 56 c-15 30 -40 66 -55 80 -33 29 -130 80
-273 144 -116 52 -184 84 -555 260 -66 31 -154 73 -195 92 -41 19 -115 54
-165 78 -214 101 -275 129 -545 248 -426 187 -587 253 -665 270 -64 14 -101
18 -108 11z m2510 -2607 l-2 -561 -98 -76 c-54 -41 -104 -84 -110 -95 -21 -36
-16 -399 6 -421 3 -4 49 15 101 42 52 27 98 45 102 42 4 -4 7 -30 7 -57 0
-101 -91 -219 -214 -278 -118 -57 -198 -92 -223 -99 -22 -5 -25 -2 -31 38 -12
78 -11 77 -53 66 -57 -16 -210 -97 -246 -132 -26 -25 -34 -42 -40 -84 l-7 -54
-205 -99 c-113 -54 -207 -99 -209 -99 -2 0 -52 -23 -112 -51 -59 -28 -151 -70
-203 -94 -52 -24 -129 -59 -170 -78 -259 -120 -652 -288 -702 -300 l-28 -7 0
144 0 145 64 36 c35 20 69 42 75 49 15 18 20 57 22 190 l1 111 -28 -3 c-16 -2
-53 -17 -81 -34 l-53 -29 -1 113 c0 62 -2 172 -4 243 -1 72 -4 238 -6 369 l-4
239 158 85 c90 48 162 81 167 76 5 -5 10 -48 11 -96 2 -112 5 -116 66 -93 90
33 295 139 351 182 42 32 50 54 58 161 5 72 9 90 26 102 57 42 68 59 68 102
l0 43 99 38 c114 43 126 61 130 177 1 17 11 31 30 43 38 22 41 22 41 -8 0 -58
23 -130 52 -158 33 -33 61 -32 145 4 25 11 50 16 54 12 5 -5 9 -132 9 -284 1
-151 5 -290 9 -309 11 -55 41 -56 168 -4 59 24 108 44 109 44 1 0 4 -23 6 -51
3 -27 10 -55 15 -60 15 -15 113 21 253 91 l118 59 17 92 c12 65 13 95 6 102
-6 6 -11 46 -11 88 0 99 -8 137 -30 144 -34 11 -318 -121 -350 -162 -14 -18
-20 -42 -21 -82 l-1 -56 -9 40 c-9 36 -7 78 7 129 7 28 71 74 189 137 79 42
108 52 161 57 97 7 104 -2 104 -142 l0 -110 21 20 c23 24 28 96 29 426 l0 188
35 22 c46 30 53 56 54 208 l1 95 48 21 c26 12 50 19 54 17 4 -2 6 -256 5 -566z
m-4087 203 c32 -16 61 -34 65 -39 6 -11 13 -83 19 -209 2 -46 6 -85 8 -86 1
-2 31 -18 66 -35 l62 -31 0 -329 0 -330 38 -31 c41 -34 486 -260 513 -260 9 0
19 10 22 22 4 12 5 162 4 333 -1 230 -5 316 -14 327 -7 8 -54 36 -105 63 -51
26 -99 52 -106 58 -13 10 -8 63 8 80 4 5 60 -12 125 -37 64 -25 130 -46 146
-46 26 0 32 6 49 45 18 42 22 45 47 39 55 -13 238 -87 255 -103 13 -13 17 -36
19 -111 1 -58 7 -106 15 -122 21 -41 105 -98 232 -159 l112 -54 0 -488 c0
-269 -3 -487 -7 -485 -60 31 -107 49 -117 45 -18 -7 -16 -277 1 -299 7 -8 38
-27 68 -42 l56 -27 -3 -137 -3 -137 -31 1 c-38 2 -155 49 -439 175 l-220 98
-3 120 -3 119 -38 35 c-21 19 -71 54 -110 77 -66 38 -71 43 -58 58 29 34 54
144 63 287 6 86 5 93 -17 117 -17 19 -57 37 -136 62 -124 39 -140 42 -178 24
l-26 -12 2 -135 c3 -156 9 -192 40 -235 19 -25 23 -42 21 -96 -2 -73 -12 -181
-18 -192 -6 -10 -61 11 -229 89 -277 130 -518 238 -670 303 -55 23 -130 58
-168 76 l-67 34 -1 88 c-2 172 -10 265 -25 298 -10 20 -39 48 -75 71 l-59 38
0 477 c1 290 4 480 10 483 9 6 82 -30 283 -139 67 -37 87 -53 88 -69 0 -12 4
-73 8 -136 7 -104 9 -115 32 -132 32 -25 238 -118 268 -121 33 -4 39 21 40
185 l2 135 -33 25 c-18 13 -68 44 -110 67 l-78 42 0 130 c0 100 3 129 13 125
92 -41 146 -59 182 -60 24 -1 47 2 51 5 3 4 9 27 11 53 7 55 19 57 103 15z"/>
<path d="M3875 1586 c-96 -53 -104 -67 -103 -193 1 -115 4 -120 59 -104 46 14
112 52 126 73 30 48 41 122 34 246 -2 32 -24 28 -116 -22z"/>
<path d="M4203 1548 c-18 -5 -61 -28 -95 -51 -48 -33 -71 -57 -96 -103 -32
-58 -32 -61 -28 -158 2 -54 9 -103 15 -109 17 -17 78 3 175 59 l86 49 1 80 c1
58 3 72 9 50 8 -33 11 -25 14 50 4 70 -11 132 -32 137 -9 3 -31 1 -49 -4z"/>
<path d="M2954 1142 c-81 -53 -87 -63 -88 -137 -1 -88 7 -94 87 -56 55 26 67
37 77 66 11 33 12 124 2 153 -6 18 -13 16 -78 -26z"/>
<path d="M3505 1011 c-179 -92 -252 -141 -267 -176 -14 -32 -19 -387 -6 -400
4 -4 78 30 165 75 214 111 240 127 246 150 10 39 2 389 -9 400 -8 8 -42 -4
-129 -49z"/>
<path d="M687 1577 c-2 -7 -5 -67 -6 -134 l-2 -122 71 -42 c79 -46 90 -61 90
-115 0 -46 47 -94 115 -117 42 -15 46 -15 55 3 13 25 13 109 -1 148 -6 17 -27
42 -50 56 -33 22 -39 32 -40 64 -1 37 -7 147 -8 168 -1 12 -179 104 -203 104
-9 0 -18 -6 -21 -13z"/>
<path d="M1914 1436 c-15 -11 -18 -30 -20 -107 -2 -149 11 -227 43 -262 16
-15 86 -58 157 -93 105 -53 132 -63 142 -52 16 17 24 84 26 230 2 111 1 118
-22 143 -23 24 -180 106 -266 138 -35 13 -45 14 -60 3z"/>
</g>
</svg>
